<svg width="56" height="56" viewBox="0 0 56 56" fill="none" xmlns="http://www.w3.org/2000/svg">
<path d="M40.8687 15.4204L49.0381 40.924C49.0988 41.1425 48.9895 41.361 48.771 41.4338C48.5647 41.4945 48.334 41.3852 48.2733 41.1788L39.412 15.8938C39.2664 15.4932 39.4849 15.0562 39.8854 14.9105C40.286 14.7648 40.723 14.9833 40.8687 15.3839C40.8565 15.3962 40.8687 15.4083 40.8687 15.4204Z" fill="#343434"/>
<path d="M10.1576 18.0055C9.81775 17.8112 9.51428 17.7991 9.29578 17.9205L8.60388 18.3211C8.38538 18.4546 8.25185 18.7216 8.25185 19.0979C8.25185 19.8627 8.78596 20.7974 9.45359 21.1858C9.86642 21.4286 10.1941 21.2951 10.1941 21.2951L11.0195 20.8581C11.238 20.7245 11.3594 20.4575 11.3594 20.0812C11.3594 19.3164 10.8131 18.3939 10.1576 18.0055Z" fill="#A1A0A0"/>
<path d="M14.5908 13.5392C14.5665 13.5149 14.5665 13.5149 14.5908 13.5392C13.1098 11.7184 9.28613 7.85828 5.01329 9.71551C6.39721 9.20568 8.12081 9.50915 9.89306 10.5288C11.1918 11.2814 12.5029 12.4225 13.7046 13.9155C17.3584 18.4554 18.5965 24.5612 16.4723 27.5472C16.278 27.8144 16.0594 28.045 15.8411 28.2392C19.7861 25.1924 18.3902 18.504 14.5908 13.5392Z" fill="#383938"/>
<path d="M16.18 17.9826C15.5609 16.5745 14.7234 15.1786 13.7037 13.9161C13.5459 13.7219 13.3881 13.5277 13.2181 13.3456C12.15 12.1317 11.0089 11.1849 9.87996 10.5294C7.86492 9.36409 5.8863 9.1456 4.42965 9.99531L4.15046 10.1531C5.60711 9.3034 7.58573 9.53404 9.60077 10.6872C10.7297 11.3427 11.8707 12.2774 12.939 13.5034C13.0967 13.6855 13.2667 13.8797 13.4245 14.0739C14.4441 15.3364 15.2817 16.7323 15.9008 18.1404C17.5152 21.782 17.7217 25.5572 16.1921 27.7057C15.8522 28.1791 15.4516 28.5433 15.0025 28.8103L15.2816 28.6526C15.7308 28.3854 16.1434 28.0214 16.4713 27.5478C18.0008 25.3994 17.7823 21.6242 16.18 17.9826Z" fill="#50504F"/>
<path d="M16.1962 27.7167C15.8564 28.1901 15.4558 28.5544 15.0065 28.8213C10.7701 31.1641 6.86154 27.5466 5.36837 25.8837C2.16384 22.2906 0.525007 17.1681 1.47183 13.6843C2.10304 11.39 3.64467 10.4554 4.1545 10.1519C5.61115 9.30218 7.58976 9.53282 9.60479 10.686C10.9036 11.4386 12.2146 12.5796 13.4164 14.0727C17.0824 18.6247 18.3205 24.7184 16.1962 27.7167ZM11.8384 15.3958C10.7824 14.0849 9.62918 13.0773 8.48814 12.4218C6.16964 11.0866 3.89969 11.1594 2.6494 12.9195C0.792167 15.5415 1.87252 20.8947 5.07715 24.8762C6.13322 26.1872 7.2864 27.1946 8.42744 27.8502C10.7459 29.1855 13.0159 29.1126 14.2661 27.3525C16.1234 24.7305 15.0431 19.3773 11.8384 15.3958Z" fill="#383938"/>
<path d="M14.6418 27.8145C13.3066 29.6839 10.9031 29.7688 8.43893 28.3365C7.22506 27.6324 5.99904 26.5762 4.87014 25.1803C1.45915 20.9439 0.305969 15.2386 2.28459 12.4589C3.61985 10.5895 6.02332 10.5045 8.49973 11.9248C9.7135 12.6288 10.9396 13.6849 12.0685 15.0808C15.4673 19.3295 16.6205 25.0226 14.6418 27.8145ZM12.9788 17.363C10.3933 13.0538 7.05512 11.6335 5.50136 11.9977C5.44055 12.0098 5.36783 12.0463 5.30714 12.0584C4.9187 12.289 4.59095 12.5804 4.32389 12.9567C2.63661 15.3237 3.61985 20.1671 6.52101 23.7723C7.46773 24.9619 8.51166 25.8602 9.54356 26.455C11.1459 27.3775 12.7117 27.5597 13.865 26.8798C13.9742 26.807 14.0228 26.7706 14.1926 26.5521C14.1927 26.5642 16.5112 23.2503 12.9788 17.363Z" fill="#1F1F1F"/>
<path d="M8.71714 26.7215L10.101 25.9082C11.6912 26.8307 13.1356 26.9157 14.1797 26.3088L12.7958 27.122C11.7518 27.729 10.3073 27.644 8.71714 26.7215Z" fill="#C3C2C2"/>
<path d="M4.67868 13.1258L6.0625 12.3125C5.03071 12.9073 4.38735 14.1819 4.38735 16.0027C4.38735 17.3865 4.75152 18.8796 5.38284 20.2998L3.99891 21.1131C3.36781 19.6929 3.00353 18.1877 3.00353 16.816C3.00353 14.9952 3.64689 13.7206 4.67868 13.1258Z" fill="#C3C2C2"/>
<path d="M3.98073 21.1121L5.36455 20.2988C5.92293 21.5613 6.68767 22.7751 7.58594 23.7948L6.20212 24.6081C5.31599 23.5884 4.53911 22.3746 3.98073 21.1121Z" fill="#E8E7E7"/>
<path d="M6.21716 24.6082L7.60109 23.7949C8.35358 24.6568 9.2034 25.3851 10.1016 25.9071L8.71774 26.7204C7.81948 26.1984 6.96976 25.4701 6.21716 24.6082Z" fill="#C3C2C2"/>
<path d="M14.9297 22.7289C14.9297 22.7411 14.9177 22.7532 14.9177 22.7775L12.1986 21.1266L11.3003 20.811L12.1864 21.5636L14.9055 23.1174C14.9055 23.1781 14.9055 23.2388 14.9055 23.2995L12.8662 22.122L14.8814 23.8214C14.8814 23.8821 14.8692 23.9428 14.8692 24.0156L12.1137 21.685L11.3489 21.248L12.1137 22.0734L14.8571 24.2341C14.8571 24.2948 14.845 24.3555 14.845 24.4162L12.7935 22.8018L14.8086 24.9625C14.8086 25.0232 14.7965 25.0717 14.7721 25.1324L12.0166 22.1948L11.1063 21.4786L11.8346 22.4983L14.5416 25.3266C14.5537 25.3388 14.5537 25.3509 14.566 25.363C14.578 25.3873 14.578 25.4116 14.566 25.4237L14.5174 25.4602L14.4688 25.4723L12.4538 23.3723C12.4538 23.3723 14.2018 25.8365 14.2261 25.8972C14.2261 25.9093 14.2261 25.9214 14.214 25.9336L14.1655 25.97H14.1169L14.0805 25.9336L11.7256 22.6197L10.9366 21.7943L11.5557 22.9353C11.5557 22.9353 13.9834 26.2735 14.0077 26.322C14.0077 26.3341 14.0077 26.3463 13.9955 26.3584L13.9471 26.3948H13.8985L13.8621 26.3584L12.102 23.9307C12.102 23.9307 13.5465 26.6012 13.5587 26.6498C13.5587 26.6619 13.5465 26.674 13.5465 26.6862C13.5465 26.6862 13.498 26.7226 13.4857 26.7226L13.4009 26.674L11.4222 23.0081L10.621 21.9156L11.0702 23.1174C11.0702 23.1174 13.0244 26.7104 13.0367 26.759C13.0367 26.7711 13.0246 26.7833 13.0246 26.7954L12.9761 26.8318L12.8911 26.7833L11.4588 24.1492L12.4906 26.9047C12.5027 26.9291 12.4906 26.9532 12.4784 26.9655C12.4784 26.9655 12.43 27.0019 12.4177 27.0019L12.3449 26.9411L10.9368 23.1781L10.5362 22.4376L10.7548 23.2388L12.3693 27.0261C12.3814 27.0625 12.3814 27.0867 12.3571 27.0989C12.3571 27.0989 12.3087 27.1354 12.2964 27.1354L12.2115 27.0746L11.0219 24.307L11.7744 27.0382C11.7865 27.0625 11.7744 27.0866 11.7623 27.0989C11.7623 27.0989 11.7138 27.1354 11.6895 27.1354C11.641 27.1232 11.6287 27.0867 11.6166 27.0625L10.597 23.263L10.0386 21.9642L10.1479 23.1538L11.1434 26.9291C11.1554 26.9533 11.1434 26.9775 11.1312 26.9775C11.1312 26.9775 11.0827 27.0139 11.0584 27.0139C11.022 27.0019 10.9976 26.9655 10.9856 26.9411L10.2451 24.1249L10.499 26.7954C10.499 26.8197 10.499 26.8318 10.4869 26.8318C10.4869 26.8318 10.4385 26.8683 10.4385 26.8562C10.4263 26.8683 10.4141 26.8683 10.402 26.8562C10.3656 26.8441 10.3412 26.8076 10.3412 26.7711L9.98922 23.1295L9.69789 22.037L9.63708 22.9596L10.0984 26.6255C10.0984 26.6498 10.0984 26.6619 10.0863 26.674C10.0863 26.674 10.0378 26.7104 10.0378 26.6983C10.0256 26.7104 10.0135 26.7104 10.0014 26.6983C9.96494 26.6862 9.94066 26.6498 9.94066 26.6133L9.58864 23.8214L9.43083 26.3099C9.43083 26.322 9.41869 26.3341 9.41869 26.3341L9.37014 26.3706C9.38227 26.3706 9.38227 26.3584 9.38227 26.3463C9.38227 26.3827 9.35789 26.3948 9.32148 26.3706C9.28506 26.3463 9.26078 26.3099 9.26078 26.2735L9.46714 22.9232L9.2972 21.6122L8.99373 22.6075L8.77523 25.9821C8.77523 25.9943 8.76309 26.0064 8.76309 26.0064L8.71454 26.0428C8.72668 26.0428 8.72668 26.0307 8.72668 26.0185C8.72668 26.055 8.70229 26.0671 8.66587 26.0428C8.62946 26.0185 8.60518 25.9821 8.60518 25.9457L8.77512 23.3237C8.77512 23.3237 8.10749 25.533 8.09535 25.5573C8.09535 25.5573 8.0468 25.5937 8.05894 25.5694C8.0468 25.5937 8.03466 25.5937 8.01038 25.5815C7.96183 25.5451 7.94969 25.5087 7.94969 25.4723L8.82357 22.559L8.88437 21.6971L8.59304 22.2434C8.59304 22.2434 7.93755 25.2781 7.92541 25.3024C7.92541 25.3024 7.87697 25.3388 7.889 25.3145C7.87697 25.3388 7.86472 25.3509 7.8283 25.3388C7.77975 25.3145 7.7675 25.2659 7.7675 25.2417L8.28947 22.8139L7.29409 24.7197L7.24553 24.7561L7.19698 24.7682C7.13628 24.7197 7.13628 24.6833 7.14842 24.659L8.43513 22.207L8.66577 21.1023L8.02241 21.7457L6.73571 24.2584L6.68715 24.2948L6.6386 24.307C6.59015 24.2584 6.5779 24.222 6.59015 24.1977L7.64611 22.1341L6.16529 23.5908L6.11674 23.6272H6.06818C6.00749 23.5665 6.00748 23.5301 6.01962 23.5058L7.87686 21.6729L8.35027 20.7503L7.58553 21.1145L5.81326 22.9596L5.76471 22.996H5.71616C5.65546 22.9353 5.65546 22.8989 5.6676 22.8746L7.17292 21.3208L5.26713 22.2191H5.23061L5.18216 22.1827C5.15777 22.1463 5.15777 22.1099 5.18216 22.0977L5.23061 22.0613L7.46413 21.0052L8.08322 20.3619L7.13639 20.4833L4.86655 21.6486H4.83014L4.79372 21.6122C4.76933 21.5758 4.76933 21.5393 4.79372 21.5272L4.84217 21.4908L6.68726 20.544L4.478 20.8353L4.40517 20.7746C4.39303 20.7382 4.39303 20.7018 4.4172 20.7018C4.4172 20.7018 4.46575 20.6653 4.478 20.6653L7.12425 20.3133L7.80391 19.9613L6.91779 19.8642L4.38079 20.374L4.29592 20.3133C4.28378 20.2769 4.28378 20.2405 4.30795 20.2405C4.30795 20.2405 4.35651 20.2041 4.36875 20.2041L6.40796 19.7914L4.07732 19.5243C4.02876 19.5122 4.01662 19.4879 4.00449 19.4515C3.99235 19.4151 4.01662 19.3908 4.01662 19.3908C4.01662 19.3908 4.06507 19.3544 4.08946 19.3544L6.92993 19.6821L7.71894 19.5243L6.72346 19.1723L3.89513 18.9538C3.84657 18.9416 3.83432 18.9174 3.82229 18.881C3.81015 18.8445 3.8223 18.8203 3.83433 18.8203C3.83433 18.8203 3.88288 18.7838 3.90726 18.7838L6.11652 18.9538L3.73732 18.1162C3.70091 18.1041 3.67652 18.0677 3.67652 18.0312C3.67652 17.9948 3.68866 17.9705 3.72508 17.9827C3.71294 17.9827 3.7008 17.9827 3.68866 17.9827L3.73722 17.9463C3.74935 17.9463 3.76149 17.9341 3.77363 17.9463L6.74751 18.9902L7.73076 19.063L6.62624 18.3954L3.63999 17.3515C3.60358 17.3393 3.5793 17.3029 3.5793 17.2665C3.5793 17.2301 3.60358 17.2179 3.62786 17.2179C3.61572 17.2179 3.60347 17.2179 3.59144 17.2179L3.63989 17.1815C3.65203 17.1815 3.66427 17.1694 3.6763 17.1815L5.94625 17.9827L3.59133 16.5503C3.55492 16.526 3.53053 16.4896 3.54278 16.4532C3.54278 16.4411 3.55492 16.4289 3.55492 16.4289L3.60337 16.3925C3.61551 16.3804 3.62775 16.3804 3.63978 16.3925L6.66244 18.2255L7.56071 18.5411L6.67447 17.7885L3.68834 16.0648C3.65192 16.0526 3.62764 16.0041 3.63978 15.9798C3.63978 15.9677 3.65192 15.9555 3.65192 15.9434L3.70048 15.907C3.71261 15.8948 3.72475 15.8948 3.73689 15.907L5.9947 17.2058L3.79759 15.3486C3.77331 15.3243 3.74914 15.2757 3.77331 15.2393L3.82186 15.2029C3.83389 15.1908 3.84614 15.1908 3.85828 15.2029L6.7473 17.6307L7.51204 18.0677L6.7473 17.2422L3.80972 14.9359C3.77331 14.9116 3.76117 14.8752 3.78545 14.8266L3.834 14.7902C3.84603 14.7781 3.85828 14.7781 3.87042 14.7902L6.06742 16.5139L4.01597 14.3168C3.99158 14.2925 3.97955 14.2439 4.00383 14.2197L4.05239 14.1833C4.06452 14.1711 4.07667 14.1711 4.08881 14.1833L6.8443 17.133L7.75471 17.8492L7.02628 16.8295L4.31933 14.0012C4.29505 13.9769 4.28292 13.9283 4.30719 13.9041L4.35575 13.8676C4.36789 13.8555 4.38013 13.8676 4.39216 13.8676L6.4072 15.9677L4.64719 13.5035C4.6228 13.4671 4.6228 13.4307 4.64719 13.4185C4.65922 13.4064 4.67147 13.4064 4.69564 13.4185C4.68361 13.4064 4.67136 13.4064 4.65922 13.4185L4.70778 13.3821C4.71992 13.4428 4.73205 13.4428 4.79275 13.4792L7.14766 16.7931L7.93668 17.6185L7.3176 16.4775L4.88986 13.1393C4.86558 13.1029 4.86558 13.0665 4.87782 13.0544C4.88985 13.0422 4.9021 13.0422 4.92627 13.0544C4.91424 13.0422 4.902 13.0422 4.88986 13.0544L4.93841 13.0179C4.95055 13.0058 4.9628 13.0179 5.01124 13.0544L6.78361 15.4821L5.33909 12.7994C5.31482 12.763 5.32696 12.7266 5.33909 12.7266C5.33909 12.7266 5.38765 12.6902 5.39979 12.6902C5.42417 12.6902 5.4362 12.7023 5.48476 12.7387L7.46435 16.4046L8.26562 17.4971L7.81638 16.2954L5.86204 12.7023C5.83776 12.6659 5.85001 12.6295 5.86204 12.6295C5.86204 12.6295 5.9106 12.5931 5.92284 12.5931C5.94712 12.5931 5.95926 12.6052 6.00781 12.6416L7.44019 15.2757L6.40829 12.5202C6.39626 12.4838 6.40829 12.4474 6.42042 12.4596C6.42042 12.4596 6.46898 12.4231 6.49326 12.4231C6.51764 12.4353 6.52967 12.4474 6.56609 12.4838L7.97419 16.259L8.37476 16.9994L8.15627 16.1983C8.15627 16.1983 6.52956 12.411 6.52956 12.3867C6.59036 12.411 6.65095 12.411 6.71175 12.4353L7.87707 15.1422L7.18516 12.5567C7.24586 12.5688 7.30644 12.5931 7.355 12.6052L8.31417 16.174L8.87245 17.4729L8.75106 16.2711L7.80435 12.6902C7.86504 12.7023 7.9136 12.7145 7.97419 12.7266L8.65395 15.3L8.42332 12.9208C8.48401 12.9572 8.54471 13.0058 8.59315 13.0544L8.89673 16.2833L9.18806 17.3757L9.24886 16.4532L8.84828 13.2486C8.90897 13.2971 8.96967 13.3335 9.03036 13.3821L9.30955 15.5913L9.43094 13.7098C9.4795 13.7584 9.54019 13.7948 9.58874 13.8434L9.43094 16.4775L9.60078 17.7885L9.90435 16.7931L10.0742 14.2561C10.1227 14.3046 10.1835 14.3653 10.232 14.4139L10.1227 16.0769L10.5355 14.7052C10.584 14.7538 10.6326 14.7902 10.669 14.8387L10.0742 16.8295L10.0135 17.6914L10.3048 17.1451L10.7782 14.948C10.8268 14.9966 10.8753 15.0572 10.9118 15.1058L10.5962 16.5867L11.2031 15.4214C11.2395 15.47 11.2881 15.5064 11.3245 15.5549L10.4626 17.2058L10.232 18.3104L10.8755 17.6671L11.7252 16.0162C11.7616 16.0648 11.798 16.1133 11.8466 16.1619L11.2639 17.2908L12.0893 16.4775C12.1257 16.5139 12.1622 16.5624 12.1864 16.5989L11.0211 17.752L10.5477 18.6746L11.3126 18.3104L12.5263 17.048C12.5627 17.0966 12.5871 17.133 12.6234 17.1815L11.713 18.1162L12.9027 17.5578C12.9392 17.5942 12.9634 17.6428 12.9998 17.6792L11.4218 18.4197L10.8027 19.063L11.7494 18.9416L13.3276 18.1283C13.364 18.1769 13.3883 18.2133 13.4247 18.2497L12.2108 18.8688L13.7282 18.6746C13.7647 18.7231 13.8011 18.7717 13.8375 18.8324L11.786 19.0994L11.1063 19.4515L12.0046 19.5607L13.9953 19.1601C14.0196 19.2087 14.0438 19.2573 14.056 19.3179L12.5144 19.6336L14.2502 19.8399C14.2746 19.9006 14.2867 19.9492 14.2988 20.0099L11.9924 19.7428L11.2034 19.9006L12.1989 20.2526L14.4323 20.4226C14.4445 20.4833 14.4687 20.5318 14.4809 20.5925L12.8057 20.459L14.6387 21.1023C14.6508 21.163 14.6751 21.2237 14.6872 21.2966L12.1744 20.4104L11.1913 20.3376L12.2594 20.9688L14.76 21.8549C14.772 21.9156 14.7842 21.9763 14.7964 22.037L12.927 21.3815L14.9056 22.5833C14.9054 22.6318 14.9175 22.6804 14.9297 22.7289ZM7.98632 17.4L8.32621 18.0434L8.52043 18.2376L8.43546 18.0191L7.98632 17.4ZM7.75568 17.6549L8.18054 18.2497L8.35037 18.3833L8.21696 18.1405L7.75568 17.6549ZM8.07129 19.1359L8.21696 19.148L7.91349 18.8931L7.34286 18.6867L8.07129 19.1359ZM8.03488 19.4879L8.26551 19.4393L8.03488 19.3058L7.3551 19.2573L8.03488 19.4879ZM8.08343 19.8399L8.27765 19.7428L8.02274 19.6578L7.45211 19.7792L8.08343 19.8399ZM8.28979 20.1798L8.41118 20.0463L8.09557 20.0099L7.58574 20.2648L8.28979 20.1798ZM8.48401 20.5318L8.6054 20.3012L8.36262 20.3376L7.90135 20.811L8.48401 20.5318ZM8.75106 20.8474L8.81186 20.5561L8.61764 20.6532L8.27765 21.3208L8.75106 20.8474ZM8.95742 20.8717L8.90887 20.9203L8.75106 21.6729L8.93314 21.3208L8.95742 20.8717ZM9.05453 17.9463L9.12747 18.1283L9.1395 17.8492L8.9817 17.2301L9.05453 17.9463ZM9.26089 21.2359L9.24875 21.1023L9.10308 21.3815L9.06667 21.9035L9.26089 21.2359ZM9.41869 18.2497L9.45511 18.1405L9.34586 17.3151L9.30944 17.8613L9.41869 18.2497ZM9.56436 21.5515L9.46725 21.163L9.43083 21.2723L9.54008 22.0977L9.56436 21.5515ZM10.8511 19.9249L10.6204 19.9734L10.8511 20.1191L11.543 20.1677L10.8511 19.9249ZM10.7904 19.5729L10.5962 19.67L10.8511 19.7549L11.4217 19.6336L10.7904 19.5729ZM10.584 19.233L10.4626 19.3665L10.7782 19.4029L11.2881 19.148L10.584 19.233ZM9.78286 18.0312L9.81927 17.5093L9.62506 18.1648L9.63708 18.3104L9.78286 18.0312ZM9.89211 22.1827L9.81927 21.4544L9.74633 21.2723L9.7343 21.5515L9.89211 22.1827ZM10.1349 17.7399L9.95269 18.0919L9.92841 18.5532L9.97697 18.5047L10.1349 17.7399ZM10.2563 18.7596L10.5963 18.0919L10.1228 18.5532L10.062 18.8445L10.2563 18.7596ZM10.2684 19.1116L10.5112 19.0752L10.9725 18.6018L10.3898 18.881L10.2684 19.1116ZM10.8875 22.0006L10.5476 21.3694L10.3655 21.1752L10.4504 21.3815L10.8875 22.0006ZM11.1303 21.7457L10.7054 21.1509L10.5355 21.0174L10.669 21.2601L11.1303 21.7457ZM11.543 20.7139L10.8146 20.2648L10.669 20.2526L10.9725 20.5075L11.543 20.7139Z" fill="#A1A0A0"/>
<path d="M15.1718 23.8443C15.1597 27.9229 12.2585 29.586 8.71402 27.5345C5.1695 25.4831 2.28048 20.494 2.29262 16.4154C2.30476 12.3247 5.20592 10.6738 8.75044 12.7252C12.3071 14.7645 15.184 19.7536 15.1718 23.8443ZM14.4678 23.4437C14.4799 19.8021 11.9065 15.3593 8.75044 13.5264C5.58233 11.6934 2.99667 13.1744 2.99667 16.816C2.98453 20.4576 5.55794 24.9004 8.71402 26.7212C11.8822 28.5542 14.4678 27.0732 14.4678 23.4437Z" fill="#6A6A69"/>
<path d="M9.22795 18.5406C8.88806 18.3464 8.58449 18.3343 8.3661 18.4556L7.67419 18.8562C7.45569 18.9897 7.32217 19.2568 7.32217 19.6331C7.32217 20.3978 7.85627 21.3325 8.5239 21.721C8.93662 21.9637 9.26437 21.8302 9.26437 21.8302L10.0898 21.3932C10.3083 21.2597 10.4297 20.9926 10.4297 20.6163C10.4297 19.8516 9.89558 18.9291 9.22795 18.5406Z" fill="#6A6A69"/>
<path d="M18.8855 17.2648C18.0478 15.3711 16.8947 13.5625 15.5594 12.0208C14.4305 10.7341 13.1438 9.62951 11.7964 8.85263C9.40509 7.46881 7.23226 7.34743 5.66625 8.25783L2.14612 10.3093L15.3652 19.3041C15.3774 19.3284 15.3895 19.3527 15.4016 19.3891L18.9219 17.3376C18.9097 17.3133 18.8976 17.2891 18.8855 17.2648Z" fill="#E5542E"/>
<path d="M8.27288 10.9035C5.5538 9.32541 3.11391 9.38611 1.52384 10.7456V11.3769L15.3984 19.3884C13.8567 15.8682 11.2469 12.6272 8.27288 10.9035Z" fill="#C6442A"/>
<path d="M17.4984 27.098C17.7412 27.45 32.2955 35.935 33.2425 35.9835L37.151 33.1309C37.6366 32.7789 37.9765 32.2571 38.0857 31.6621C38.5834 29.0643 39.2146 24.9616 39.2632 22.7523C39.2753 21.939 39.251 21.1257 38.984 20.361C38.5227 19.0014 37.3817 17.9696 36.1071 17.3141C34.8325 16.6587 33.4123 16.3552 32.0163 16.0396C30.9117 15.7968 29.8071 15.554 28.7025 15.3113C27.7071 15.0928 26.6997 14.8743 25.6922 14.6679C23.75 14.2795 21.7956 13.9517 19.8413 13.6604C18.858 13.5147 17.8627 13.369 16.8673 13.2355C16.3576 13.1627 14.7309 13.891 13.8447 14.5101C13.5291 14.7407 13.5049 15.1777 13.7719 15.4691C17.9111 19.8511 17.2192 26.6974 17.4984 27.098Z" fill="#504D4D"/>
<path opacity="0.6" d="M38.1891 24.2201C37.8735 23.0912 37.6429 21.0641 36.9388 19.7773L32.2774 22.5328C32.2774 22.5328 35.5549 28.3594 35.5549 28.9664C35.5549 30.593 35.4942 32.5352 35.1664 34.5866L37.1451 33.1421C37.6306 32.7901 37.9705 32.2681 38.0798 31.6733C38.3226 30.3986 38.6018 28.772 38.8203 27.1698C38.6625 26.1745 38.4561 25.1912 38.1891 24.2201Z" fill="#343434"/>
<path opacity="0.7" d="M16.0658 17.7383C16.0658 17.7383 18.4085 21.2828 18.2022 26.5511L21.164 25.2644L24.8906 22.4482L16.1386 17.3984L16.0658 17.7383Z" fill="#282929"/>
<path d="M47.9545 39.8297C47.6146 39.6355 47.3112 39.6233 47.0927 39.7447L46.4008 40.1453C46.1823 40.2787 46.0487 40.5459 46.0487 40.9222C46.0487 41.6869 46.5828 42.6216 47.2505 43.01C47.6632 43.2528 47.9909 43.1193 47.9909 43.1193L48.8164 42.6824C49.0349 42.5489 49.1562 42.2818 49.1562 41.9055C49.1562 41.1407 48.61 40.2181 47.9545 39.8297Z" fill="#A1A0A0"/>
<path d="M52.3876 35.3634C52.3634 35.3392 52.3634 35.3392 52.3876 35.3634C50.9067 33.5426 47.083 29.6825 42.8102 31.5397C44.194 31.0299 45.9177 31.3334 47.6899 32.353C48.9888 33.1056 50.2998 34.2467 51.5015 35.7397C55.1553 40.2796 56.3934 46.3854 54.2691 49.3716C54.0749 49.6386 53.8564 49.8692 53.6379 50.0635C57.583 47.0166 56.1871 40.3282 52.3876 35.3634Z" fill="#383938"/>
<path d="M53.9805 39.8069C53.3614 38.3988 52.5238 37.0029 51.5042 35.7403C51.3464 35.5461 51.1886 35.3519 51.0187 35.1698C49.9505 33.9559 48.8095 33.009 47.6806 32.3536C45.6655 31.1883 43.6869 30.9698 42.2303 31.8195L41.9511 31.9773C43.4077 31.1276 45.3863 31.3583 47.4014 32.5114C48.5303 33.1669 49.6713 34.1016 50.7395 35.3276C50.8973 35.5097 51.0673 35.7039 51.2251 35.8981C52.2447 37.1727 53.0823 38.5565 53.7014 39.9646C55.3158 43.6064 55.5222 47.3815 53.9927 49.5301C53.6528 50.0034 53.2523 50.3677 52.8031 50.6346L53.0823 50.4768C53.5315 50.2097 53.9442 49.8457 54.2719 49.3723C55.8013 47.2237 55.5949 43.4486 53.9805 39.8069Z" fill="#50504F"/>
<path d="M53.9931 49.5294C53.6532 50.0027 53.2527 50.367 52.8035 50.6339C48.5671 52.9767 44.6584 49.3593 43.1653 47.6963C39.9607 44.1033 38.322 38.9807 39.2688 35.4968C39.9 33.2025 41.4416 32.2679 41.9515 31.9644C43.4081 31.1147 45.3867 31.3453 47.4018 32.4985C48.7006 33.2511 50.0116 34.3923 51.2133 35.8852C54.8792 40.4496 56.1174 46.5433 53.9931 49.5294ZM49.6353 37.2086C48.5792 35.8976 47.4261 34.8901 46.285 34.2347C43.9665 32.8994 41.6966 32.9722 40.4463 34.7324C38.589 37.3543 39.6694 42.7075 42.874 46.689C43.9301 48 45.0833 49.0075 46.2243 49.6629C48.5428 50.9982 50.8128 50.9253 52.0631 49.1652C53.9203 46.5554 52.8399 41.2022 49.6353 37.2086Z" fill="#383938"/>
<path d="M52.4387 49.6386C51.1035 51.508 48.7 51.593 46.2358 50.1605C45.0219 49.4564 43.7959 48.4005 42.667 47.0045C39.256 42.768 38.1028 37.0628 40.0815 34.2831C41.4167 32.4137 43.8202 32.3288 46.2965 33.7489C47.5104 34.4529 48.7364 35.509 49.8653 36.905C53.2641 41.1536 54.4173 46.8467 52.4387 49.6386ZM50.7757 39.1872C48.1901 34.8779 44.852 33.4578 43.2982 33.8218C43.2375 33.834 43.1647 33.8704 43.104 33.8826C42.7156 34.1133 42.3878 34.4045 42.1208 34.7809C40.4335 37.148 41.4167 41.9912 44.3179 45.5965C45.2647 46.7861 46.3086 47.6844 47.3404 48.2792C48.9428 49.2017 50.5087 49.3837 51.6618 48.7041C51.7711 48.6312 51.8196 48.5948 51.9896 48.3763C52.0017 48.3883 54.3081 45.0745 50.7757 39.1872Z" fill="#1F1F1F"/>
<path d="M46.5141 48.5457L47.8979 47.7324C49.4881 48.655 50.9326 48.7399 51.9766 48.133L50.5927 48.9463C49.5488 49.5532 48.1043 49.4683 46.5141 48.5457Z" fill="#C3C2C2"/>
<path d="M42.4756 34.95L43.8594 34.1367C42.8276 34.7315 42.1842 36.0061 42.1842 37.8269C42.1842 39.2108 42.5484 40.7038 43.1796 42.124L41.7958 42.9373C41.1646 41.5171 40.8004 40.0119 40.8004 38.6402C40.8004 36.8194 41.4438 35.5448 42.4756 34.95Z" fill="#C3C2C2"/>
<path d="M41.7776 42.9363L43.1614 42.123C43.7198 43.3855 44.4845 44.5994 45.3828 45.619L43.999 46.4323C43.1129 45.4127 42.3481 44.1988 41.7776 42.9363Z" fill="#E8E7E7"/>
<path d="M44.014 46.434L45.3979 45.6328C46.1505 46.4947 47.0002 47.223 47.8984 47.745L46.5146 48.5583C45.6164 48.0241 44.7666 47.2958 44.014 46.434Z" fill="#C3C2C2"/>
<path d="M52.7266 44.5534C52.7266 44.5654 52.7144 44.5777 52.7144 44.6018L49.9953 42.9511L49.0971 42.6354L50.0075 43.3879L52.7266 44.9418C52.7266 45.0025 52.7266 45.0631 52.7266 45.1239L50.6873 43.9464L52.7023 45.6459C52.7023 45.7067 52.6901 45.7672 52.6901 45.8401L49.9346 43.5094L49.1699 43.0726L49.9225 43.9101L52.678 46.0586C52.678 46.1193 52.6659 46.18 52.6659 46.2407L50.6144 44.6383L52.6295 46.7991C52.6295 46.8598 52.6173 46.9084 52.593 46.969L49.8375 44.0314L48.9271 43.3152L49.6555 44.3349L52.3624 47.1632C52.3745 47.1753 52.3745 47.1876 52.3867 47.1996C52.3988 47.224 52.3988 47.2482 52.3867 47.2604L52.3381 47.2968L52.2896 47.309L50.2745 45.209C50.2745 45.209 52.0225 47.673 52.0468 47.7338C52.0468 47.7459 52.0468 47.7581 52.0347 47.7702L51.9861 47.8067H51.9375L51.9011 47.7702L49.5462 44.4564L48.7572 43.6309L49.3763 44.772C49.3763 44.772 51.804 48.1101 51.8283 48.1587C51.8283 48.1707 51.8283 48.183 51.8162 48.1951L51.7676 48.2315H51.719L51.6826 48.1951L49.9225 45.7674C49.9225 45.7674 51.367 48.438 51.3792 48.4864C51.3792 48.4986 51.367 48.5108 51.367 48.5229C51.367 48.5229 51.3185 48.5593 51.3063 48.5593L51.2214 48.5108L49.2427 44.8449L48.4416 43.7524L48.8907 44.9542C48.8907 44.9542 50.8451 48.5472 50.8572 48.5959C50.8572 48.6079 50.8451 48.6202 50.8451 48.6323L50.7965 48.6687L50.7115 48.6202L49.2792 45.9861L50.311 48.7416C50.3231 48.7658 50.311 48.79 50.2988 48.8023C50.2988 48.8023 50.2503 48.8387 50.2381 48.8387L50.1653 48.778L48.7572 45.0149L48.3566 44.2745L48.5751 45.0757L50.1896 48.863C50.2017 48.8994 50.2017 48.9236 50.1774 48.9358C50.1774 48.9358 50.1289 48.9722 50.1167 48.9722L50.0318 48.9114L48.8422 46.1438L49.5826 48.9114C49.5948 48.9358 49.5826 48.96 49.5705 48.9722C49.5705 48.9722 49.5219 49.0086 49.4977 49.0086C49.4491 48.9965 49.437 48.9601 49.4248 48.9358L48.4052 45.1362L47.8468 43.8375L47.9682 45.0392L48.9635 48.8144C48.9757 48.8387 48.9635 48.863 48.9514 48.863C48.9514 48.863 48.9029 48.8994 48.8786 48.8994C48.8422 48.8872 48.8179 48.8508 48.8057 48.8264L48.0653 46.0103L48.3202 48.6809C48.3202 48.7053 48.3202 48.7173 48.3081 48.7173C48.3081 48.7173 48.2595 48.7537 48.2595 48.7417C48.2474 48.7537 48.2352 48.7537 48.2231 48.7417C48.1867 48.7295 48.1624 48.6931 48.1624 48.6567L47.8104 45.015L47.519 43.9225L47.4583 44.8451L47.9196 48.511C47.9196 48.5353 47.9196 48.5475 47.9075 48.5595C47.9075 48.5595 47.8589 48.5959 47.8589 48.5839C47.8468 48.5959 47.8346 48.5959 47.8225 48.5839C47.7861 48.5717 47.7618 48.5353 47.7618 48.4989L47.4098 45.707L47.252 48.1954C47.252 48.2075 47.2398 48.2197 47.2398 48.2197L47.1913 48.2561C47.2034 48.2561 47.2034 48.244 47.2034 48.2318C47.2034 48.2683 47.1792 48.2804 47.1427 48.2561C47.1063 48.2318 47.082 48.1954 47.082 48.159L47.2884 44.8087L47.1185 43.4976L46.815 44.4931L46.5965 47.8677C46.5965 47.8798 46.5844 47.892 46.5844 47.892L46.5358 47.9284C46.5479 47.9284 46.5479 47.9163 46.5479 47.9041C46.5479 47.9405 46.5237 47.9527 46.4872 47.9284C46.4508 47.9041 46.4266 47.8677 46.4266 47.8313L46.5965 45.2093C46.5965 45.2093 45.9289 47.4187 45.9167 47.4428C45.9167 47.4428 45.8682 47.4792 45.8803 47.455C45.8682 47.4792 45.856 47.4792 45.8318 47.467C45.7832 47.4306 45.7711 47.3942 45.7711 47.3577L46.645 44.4444L46.7057 43.5826L46.4144 44.1288C46.4144 44.1288 45.7589 47.1635 45.7468 47.1878C45.7468 47.1878 45.6982 47.2243 45.7104 47.1999C45.6982 47.2243 45.6861 47.2364 45.6497 47.2243C45.6011 47.1999 45.589 47.1514 45.589 47.1272L46.1109 44.6995L45.1156 46.6053L45.067 46.6417L45.0185 46.6538C44.9578 46.6053 44.9578 46.5688 44.9699 46.5446L46.2566 44.0921L46.4872 42.9875L45.8439 43.6309L44.5572 46.1437L44.5086 46.1801L44.4601 46.1922C44.4115 46.1437 44.3994 46.1072 44.4115 46.083L45.4676 44.0194L43.9867 45.4759L43.9381 45.5123H43.8895C43.8289 45.4516 43.8289 45.4152 43.841 45.3911L45.6982 43.558L46.1716 42.6353L45.4069 42.9995L43.6346 44.8446L43.5861 44.881H43.5375C43.4768 44.8202 43.4768 44.7839 43.489 44.7596L44.9942 43.2059L43.0884 44.1041H43.052L43.0034 44.0677C42.9791 44.0313 42.9791 43.9948 43.0034 43.9827L43.052 43.9463L45.2855 42.8903L45.9046 42.2468L44.9578 42.3682L42.6878 43.5335H42.6514L42.615 43.4971C42.5907 43.4607 42.5907 43.4243 42.615 43.4122L42.6635 43.3757L44.5086 42.429L42.2994 42.7203L42.2265 42.6596C42.2144 42.6232 42.2144 42.5868 42.2387 42.5868C42.2387 42.5868 42.2872 42.5504 42.2994 42.5504L44.9456 42.1983L45.6254 41.8463L44.7393 41.7492L42.2023 42.259L42.1173 42.1983C42.1052 42.1619 42.1052 42.1255 42.1294 42.1255C42.1294 42.1255 42.178 42.089 42.1901 42.089L44.2294 41.6763L41.8867 41.3608C41.8381 41.3486 41.826 41.3244 41.8138 41.2878C41.8017 41.2514 41.826 41.2271 41.826 41.2271C41.826 41.2271 41.8745 41.1907 41.8988 41.1907L44.7393 41.5185L45.5283 41.3607L44.5329 41.0086L41.7046 40.79C41.656 40.778 41.6439 40.7536 41.6317 40.7172C41.6196 40.6808 41.6317 40.6565 41.6439 40.6565C41.6439 40.6565 41.6924 40.6201 41.7167 40.6201L43.926 40.7899L41.5468 39.9524C41.5104 39.9402 41.4861 39.9038 41.4861 39.8674C41.4861 39.831 41.4982 39.8067 41.5346 39.8188C41.5225 39.8188 41.5104 39.8188 41.4982 39.8188L41.5468 39.7824C41.5589 39.7824 41.571 39.7704 41.5832 39.7824L44.5572 40.8263L45.5404 40.8992L44.4358 40.2316L41.4497 39.1876C41.4132 39.1756 41.389 39.1392 41.389 39.1027C41.389 39.0663 41.4132 39.0542 41.4375 39.0542C41.4254 39.0542 41.4132 39.0542 41.4011 39.0542L41.4497 39.0178C41.4618 39.0178 41.4739 39.0056 41.4861 39.0178L43.756 39.8189L41.4011 38.3866C41.3647 38.3623 41.3404 38.3259 41.3526 38.2895C41.3526 38.2773 41.3647 38.2651 41.3647 38.2651L41.4132 38.2286C41.4254 38.2165 41.4375 38.2165 41.4497 38.2286L44.4722 40.0616L45.3705 40.3772L44.4843 39.6246L41.4982 37.901C41.4618 37.8889 41.4375 37.8402 41.4497 37.816C41.4497 37.8039 41.4618 37.7917 41.4618 37.7796L41.5104 37.7432C41.5225 37.7311 41.5346 37.7311 41.5468 37.7432L43.8046 39.0419L41.6075 37.1847C41.5832 37.1604 41.5589 37.1119 41.5832 37.0755L41.6317 37.039C41.6439 37.0269 41.656 37.0269 41.6682 37.039L44.5572 39.4667L45.3219 39.9037L44.5572 39.0783L41.6196 36.772C41.5832 36.7476 41.571 36.7112 41.5953 36.6626L41.6439 36.6262C41.656 36.6142 41.6682 36.6142 41.6803 36.6262L43.8774 38.3505L41.826 36.1534C41.8017 36.1291 41.7895 36.0805 41.8138 36.0562L41.8624 36.0198C41.8745 36.0077 41.8867 36.0198 41.8988 36.0198L44.6543 38.9695L45.5647 39.6857L44.8364 38.6661L42.1294 35.8377C42.1052 35.8134 42.093 35.7648 42.1173 35.7406L42.1658 35.7042C42.178 35.6921 42.1901 35.7042 42.2023 35.7042L44.2173 37.8042L42.4572 35.3401C42.4329 35.3036 42.4329 35.2672 42.4572 35.2552C42.4693 35.2431 42.4815 35.2431 42.5057 35.2552C42.4936 35.2431 42.4815 35.2431 42.4693 35.2552L42.5179 35.2188C42.53 35.2066 42.5421 35.2066 42.6028 35.2552L44.9578 38.569L45.7468 39.3944L45.1277 38.2535L42.7 34.9152C42.6757 34.8788 42.6757 34.8424 42.6878 34.8303C42.7 34.8182 42.7121 34.8182 42.7364 34.8303C42.7242 34.8182 42.7121 34.8182 42.7 34.8303L42.7485 34.7938C42.7606 34.7818 42.7728 34.7938 42.8213 34.8303L44.5936 37.258L43.1491 34.5753C43.1248 34.5389 43.1369 34.5025 43.1491 34.5025C43.1491 34.5025 43.1976 34.4661 43.2098 34.4661C43.2341 34.4661 43.2462 34.4782 43.2948 34.5146L45.2734 38.1804L46.0745 39.2729L45.6254 38.0712L43.6711 34.4782C43.6468 34.4418 43.6589 34.4053 43.6711 34.4053C43.6711 34.4053 43.7196 34.3688 43.7317 34.3688C43.756 34.3688 43.7682 34.381 43.8167 34.4174L45.2491 37.0516L44.1809 34.3446C44.1687 34.3082 44.1809 34.2717 44.193 34.2838C44.193 34.2838 44.2416 34.2474 44.2659 34.2474C44.2901 34.2595 44.3023 34.2717 44.3387 34.3082L45.7468 38.0833L46.1474 38.8238L45.9289 38.0225C45.9289 38.0225 44.3023 34.2353 44.3023 34.2109C44.363 34.2353 44.4237 34.2353 44.4843 34.2595L45.6497 36.9665L44.9578 34.3811C45.0185 34.3932 45.0791 34.4175 45.1277 34.4297L46.0867 37.9984L46.645 39.2973L46.5237 38.0954L45.5768 34.5146C45.6375 34.5267 45.6861 34.5389 45.7468 34.551L46.4266 37.1243L46.1959 34.7453C46.2566 34.7817 46.3173 34.8301 46.3659 34.8787L46.6815 38.1076L46.9728 39.2001L47.0335 38.2775L46.6329 35.0729C46.6936 35.1215 46.7543 35.1579 46.815 35.2064L47.0942 37.3793L47.2156 35.4978C47.2641 35.5463 47.3248 35.5827 47.3734 35.6313L47.2156 38.2654L47.3855 39.5765L47.689 38.581L47.8589 36.044C47.9075 36.0926 47.9682 36.1534 48.0167 36.2018L47.9075 37.8649L48.3202 36.4932C48.3687 36.5418 48.4173 36.5782 48.4537 36.6267L47.8589 38.6174L47.7982 39.4793L48.0653 38.9452L48.5387 36.748C48.5872 36.7966 48.6358 36.8573 48.6722 36.9059L48.3566 38.3868L48.9635 37.2215C49 37.27 49.0485 37.3064 49.0849 37.355L48.2231 39.0057L47.9924 40.1104L48.6358 39.4792L49.4855 37.8283C49.5219 37.8768 49.5583 37.9254 49.6069 37.9741L49.0242 39.103L49.8497 38.2897C49.8861 38.3261 49.9225 38.3745 49.9468 38.4109L48.7815 39.5642L48.3081 40.4868L49.0728 40.1226L50.2867 38.8603C50.3231 38.8846 50.3595 38.9331 50.3838 38.9695L49.4734 39.9042L50.663 39.3458C50.6994 39.3823 50.7237 39.4308 50.7601 39.4672L49.182 40.2077L48.563 40.8512L49.5098 40.7298L51.0878 39.9165C51.1242 39.9649 51.1485 40.0014 51.1849 40.0379L49.9711 40.6569L51.4884 40.4627C51.5248 40.5112 51.5612 40.5598 51.5977 40.6205L49.5462 40.8876L48.8664 41.2396L49.7404 41.361L51.7312 40.9604C51.7555 41.009 51.7797 41.0575 51.7919 41.1182L50.2503 41.4338L51.9861 41.6401C52.0104 41.7009 52.0225 41.7494 52.0347 41.81L49.7283 41.543L48.9393 41.7008L49.9346 42.0528L52.1803 42.2106C52.1925 42.2713 52.2167 42.3198 52.2289 42.3804L50.5537 42.247L52.3867 42.8904C52.3988 42.9512 52.4231 43.0117 52.4352 43.0846L49.9225 42.1985L48.9393 42.1256L50.0439 42.7933L52.5566 43.6794C52.5688 43.7401 52.5809 43.8008 52.593 43.8615L50.7237 43.206L52.7023 44.4077C52.7023 44.4563 52.7266 44.5048 52.7266 44.5534ZM45.7953 39.2245L46.1352 39.8678L46.3294 40.062L46.2445 39.8435L45.7953 39.2245ZM45.5526 39.4794L45.9774 40.0742L46.1474 40.2076L46.0138 39.9648L45.5526 39.4794ZM45.8682 40.9603L46.0138 40.9724L45.7104 40.7174L45.1398 40.5111L45.8682 40.9603ZM45.8318 41.3123L46.0624 41.2638L45.8318 41.1302L45.152 41.0818L45.8318 41.3123ZM45.8924 41.6644L46.0867 41.5672L45.8318 41.4823L45.2612 41.6037L45.8924 41.6644ZM46.0867 42.0042L46.2081 41.8707L45.8924 41.8343L45.3948 42.0893L46.0867 42.0042ZM46.293 42.3563L46.4144 42.1256L46.1716 42.162L45.7104 42.6354L46.293 42.3563ZM46.5479 42.6719L46.6086 42.3805L46.4144 42.4776L46.0745 43.1453L46.5479 42.6719ZM46.7543 42.6961L46.7057 42.7447L46.5479 43.4973L46.73 43.1453L46.7543 42.6961ZM46.8514 39.7707L46.9242 39.9529L46.9364 39.6737L46.7664 39.0546L46.8514 39.7707ZM47.0578 43.0603L47.0456 42.9268L46.9 43.206L46.8635 43.7279L47.0578 43.0603ZM47.2156 40.0742L47.252 39.9648L47.1427 39.1395L47.1063 39.6857L47.2156 40.0742ZM47.3612 43.3759L47.2641 42.9875L47.2277 43.0967L47.337 43.9222L47.3612 43.3759ZM48.6479 41.7493L48.4173 41.7978L48.6479 41.9435L49.3399 41.992L48.6479 41.7493ZM48.5872 41.3973L48.393 41.4944L48.6479 41.5794L49.2185 41.458L48.5872 41.3973ZM48.3809 41.0574L48.2595 41.1909L48.5751 41.2274L49.0849 40.9724L48.3809 41.0574ZM47.5797 39.8557L47.6161 39.3338L47.4219 39.9893L47.4341 40.135L47.5797 39.8557ZM47.689 44.0071L47.6161 43.2787L47.5433 43.0966L47.519 43.3758L47.689 44.0071ZM47.9318 39.5522L47.7497 39.9042L47.7254 40.3655L47.774 40.3169L47.9318 39.5522ZM48.0531 40.584L48.393 39.9164L47.9196 40.3776L47.8589 40.669L48.0531 40.584ZM48.0653 40.936L48.3081 40.8995L48.7693 40.4262L48.1867 40.7053L48.0653 40.936ZM48.6844 43.825L48.3445 43.1938L48.1624 42.9996L48.2474 43.206L48.6844 43.825ZM48.9271 43.5701L48.5023 42.9753L48.3323 42.8419L48.4659 43.0846L48.9271 43.5701ZM49.3399 42.5383L48.6115 42.0892L48.4659 42.0771L48.7693 42.3321L49.3399 42.5383Z" fill="#A1A0A0"/>
<path d="M52.9687 45.6686C52.9566 49.7472 50.0554 51.4102 46.5109 49.3588C42.9664 47.3073 40.0774 42.3183 40.0895 38.2397C40.1016 34.1489 43.0028 32.4979 46.5473 34.5495C50.104 36.5888 52.9809 41.5778 52.9687 45.6686ZM52.2768 45.2559C52.2889 41.6142 49.7155 37.1715 46.5594 35.3385C43.3912 33.5056 40.8057 34.9865 40.8057 38.6282C40.7935 42.2698 43.367 46.7126 46.523 48.5334C49.6791 50.3663 52.2647 48.8975 52.2768 45.2559Z" fill="#6A6A69"/>
<path d="M47.0326 40.3648C46.6928 40.1706 46.3893 40.1585 46.1708 40.2798L45.4789 40.6804C45.2604 40.8139 45.1269 41.081 45.1269 41.4573C45.1269 42.222 45.661 43.1567 46.3286 43.5451C46.7413 43.7879 47.0691 43.6545 47.0691 43.6545L47.8945 43.2175C48.113 43.084 48.2344 42.8169 48.2344 42.4406C48.2344 41.6758 47.6881 40.7532 47.0326 40.3648Z" fill="#6A6A69"/>
<path d="M28.5081 13.3678C28.4961 13.3678 28.3868 13.3193 28.3018 13.295C26.821 13.0401 25.4129 12.421 24.8787 12.1661C24.3568 11.9112 22.7544 11.1586 20.5209 9.55624C19.4649 8.7915 18.5058 7.88109 17.3527 7.24988C16.94 7.03138 16.6244 7.01924 16.236 7.2256L20.7152 11.9719L28.3262 14.7031C29.0665 14.2175 28.7995 13.5499 28.5081 13.3678Z" fill="#343434"/>
<path d="M27.8316 13.4154C27.0425 13.294 25.3431 12.8813 23.0489 11.6067C22.9154 11.5339 22.7818 11.4611 22.6483 11.3761C21.2159 10.5507 20.0385 9.70094 19.0795 8.98475C18.1204 8.26857 17.3922 7.68591 16.8945 7.39458C16.5911 7.22464 16.3726 7.1518 16.239 7.23677L10.0847 10.8177C13.8234 14.0223 17.6957 16.8749 22.1627 18.3073C22.1384 18.3195 28.2564 14.7628 28.2564 14.7628C28.2807 14.7507 28.2928 14.7385 28.3171 14.7264C28.6813 14.4715 28.2928 13.4882 27.8316 13.4154Z" fill="#454443"/>
<path d="M21.8108 17.0824C21.046 16.6818 18.7154 16.9003 12.9253 12.5668C11.9662 11.8506 11.238 11.2679 10.7403 10.9766C10.4369 10.8067 10.2184 10.7338 10.0848 10.8188C9.9756 10.8795 9.69641 11.0616 9.5993 11.4379C9.15016 13.1494 15.3046 16.5847 15.5716 16.7304C17.7201 17.92 20.597 19.1703 22.1022 18.357C22.1265 18.3448 22.1386 18.3327 22.1629 18.3206C22.5027 18.0656 22.2114 17.2888 21.8108 17.0824Z" fill="#343434"/>
<path d="M20.3129 17.6533C17.4481 16.925 14.6198 15.1042 12.2406 13.3198C11.2817 12.6036 10.5655 12.0331 10.1164 11.766C9.75219 11.5718 9.67936 11.584 9.65508 11.8874C9.58225 12.4944 11.9613 14.5337 14.7898 16.1724C19.621 18.9522 21.8181 18.5759 21.2476 17.9568C21.0412 17.7262 20.6042 17.7262 20.3129 17.6533Z" fill="#282929"/>
<path d="M34.6767 28.0434L30.3189 20.8573C30.1003 20.4931 29.627 20.3838 29.2628 20.6023C28.8986 20.8208 28.7894 21.2943 29.0078 21.6584L33.3656 28.8446C33.5719 29.1966 33.6812 29.585 33.6569 29.9978L33.5112 33.6516C33.4991 34.0643 33.2926 34.4528 32.965 34.7077L31.1321 36.1157C30.8164 36.3584 30.3916 36.3828 30.0517 36.1765L15.643 27.6551L15.9101 27.4973L17.4031 28.2013C17.6216 28.2984 17.8765 28.2984 18.095 28.1892L21.7367 26.247C21.8216 26.1984 21.8945 26.1377 21.9553 26.077L25.269 22.2655C25.5482 21.9499 25.5118 21.4643 25.1962 21.1851C24.8806 20.9059 24.395 20.9423 24.1159 21.2579L20.8991 24.9603L17.7187 26.6597L16.2014 25.9435C15.9708 25.8343 15.6916 25.8464 15.473 25.9799L14.3198 26.6961C14.2348 26.7568 14.1498 26.8296 14.0891 26.9146C13.8828 27.2059 13.8099 27.5822 13.8828 27.9342C13.9556 28.2862 14.1862 28.5897 14.4898 28.7718L29.2748 37.5118C29.6753 37.7425 30.1124 37.8639 30.5494 37.8639C31.0835 37.8639 31.6175 37.6939 32.0667 37.3419L33.8997 35.9338C34.5916 35.3997 35.0165 34.5985 35.0529 33.7246L35.1985 30.0708C35.2351 29.3422 35.053 28.6504 34.6767 28.0434Z" fill="#B8B7B7"/>
<path d="M32.2337 33.7249C32.088 33.3972 31.8209 33.0209 31.4568 32.6082C30.4493 31.4549 28.6891 30.0712 26.6863 28.9179C24.137 27.4491 21.9764 26.8057 21.2603 27.2185L20.0706 27.9105C20.7868 27.4976 22.9475 28.129 25.4967 29.6099C27.4994 30.7631 29.2597 32.159 30.2672 33.3001C30.6313 33.7128 30.8984 34.089 31.0441 34.4168C31.129 34.6111 31.1776 34.781 31.1776 34.9267C31.1776 35.133 31.0926 35.2908 30.9226 35.3879L32.1123 34.696C32.2821 34.5989 32.3672 34.441 32.3672 34.2348C32.3672 34.077 32.3186 33.907 32.2337 33.7249Z" fill="#787775"/>
<path d="M25.4953 29.5976C22.3635 27.7889 19.8143 27.2305 19.8143 28.3594C19.8143 29.4882 22.3512 31.8795 25.4831 33.6883C28.6149 35.497 31.1641 36.0432 31.1641 34.9143C31.1641 33.7854 28.6271 31.4184 25.4953 29.5976Z" fill="#615F5D"/>
<path d="M27.9146 23.5654V25.5561L29.1285 24.8521L29.1406 22.8613L27.9146 23.5654Z" fill="#787775"/>
<path d="M27.9146 20.75L26.7007 21.454L27.9146 23.5662L29.1406 22.8621L27.9146 20.75Z" fill="#898785"/>
<path d="M26.1782 19.7422L24.9643 20.4462L26.7002 21.4538L27.9141 20.7497L26.1782 19.7422Z" fill="#787775"/>
<path d="M26.7002 21.4528L24.9643 20.4453L23.7383 21.1494V23.1401L24.9522 25.2523L26.6881 26.2598L27.9141 25.5557V23.565L26.7002 21.4528Z" fill="#615F5D"/>
<path d="M23.8747 15.1776C21.2165 18.3822 27.5771 22.4123 32.9788 23.1891C36.5841 23.699 38.6234 22.3637 39.2061 18.7585C39.3275 18.0423 39.4003 17.2897 39.2182 16.5857C38.0164 11.6816 26.4846 12.0215 23.8747 15.1776Z" fill="#E5542E"/>
<path opacity="0.6" d="M37.4965 15.1042C37.5936 14.4123 35.6635 13.5747 33.1631 13.2227C30.6746 12.8706 28.5625 13.1498 28.4653 13.8417C28.3681 14.5337 30.2982 15.3712 32.7988 15.7233C35.2994 16.0631 37.3994 15.7839 37.4965 15.1042Z" fill="url(#paint0_linear_268_20736)"/>
<path d="M16.7157 26.2117C16.7157 26.2117 15.8054 25.4834 14.385 24.5244C13.681 24.0389 12.8313 23.4926 11.921 22.91C11.0106 22.3394 10.0272 21.7446 9.0441 21.162C7.06537 20.0088 5.03831 18.9406 3.48455 18.2001C1.93079 17.4597 0.838298 17.0469 0.838298 17.0469C0.595523 16.962 0.31633 17.0227 0.146279 17.229C-0.0722181 17.4961 -0.0358022 17.8845 0.23125 18.103C0.23125 18.103 1.12952 18.8435 2.54986 19.8146C3.9701 20.7978 5.91219 22.0117 7.90306 23.1527C8.89843 23.7233 9.90595 24.2695 10.8528 24.7793C11.7996 25.277 12.6979 25.7261 13.4747 26.1024C15.0285 26.8551 16.1089 27.2799 16.1089 27.2799C16.3516 27.377 16.643 27.3042 16.8129 27.0856C17.0192 26.8186 16.9827 26.4302 16.7157 26.2117Z" fill="#B8B7B7"/>
<path d="M29.0791 35.1325C29.0184 35.1325 28.9457 35.1204 28.885 35.084C28.7636 35.0111 28.6907 34.8897 28.6907 34.7562V29.0267C28.6907 27.3881 29.5769 25.8465 30.997 25.0331L31.7132 24.6204C31.8953 24.5111 32.1259 24.5718 32.2351 24.766C32.3444 24.9481 32.2836 25.1787 32.0894 25.288L31.3733 25.7007C30.1836 26.3805 29.4432 27.6673 29.4432 29.039V34.1007L29.5645 34.0279C29.7466 33.9186 29.9773 33.9793 30.0865 34.1736C30.1958 34.3557 30.135 34.5864 29.9407 34.6955L29.2367 35.0961C29.2127 35.1204 29.152 35.1325 29.0791 35.1325Z" fill="#B8B7B7"/>
<path d="M27.5007 34.2237C27.44 34.2237 27.3673 34.2115 27.3065 34.1751C27.1851 34.1023 27.1122 33.9809 27.1122 33.8475V28.118C27.1122 26.4793 27.9984 24.9376 29.4186 24.1243L30.596 23.4446C30.7781 23.3353 31.0088 23.396 31.1179 23.5902C31.2272 23.7723 31.1665 24.003 30.9723 24.1122L29.7948 24.792C28.6052 25.4717 27.8647 26.7585 27.8647 28.1301V33.192L27.9861 33.1191C28.1682 33.0098 28.3988 33.0706 28.508 33.2648C28.6172 33.4469 28.5565 33.6775 28.3623 33.7867L27.6583 34.1873C27.6342 34.2115 27.5735 34.2237 27.5007 34.2237Z" fill="#B8B7B7"/>
<path d="M24.4303 31.4786C24.2847 31.3937 24.1511 31.3815 24.054 31.4422L20.4003 33.5543L21.165 34.8654L24.8188 32.7532C24.9159 32.6924 24.9766 32.5833 24.9766 32.4133C24.9644 32.0613 24.7216 31.6486 24.4303 31.4786Z" fill="#343434"/>
<path d="M21.3125 34.5138C21.3125 34.8537 21.0697 34.9872 20.7784 34.8173C20.4871 34.6474 20.2443 34.2347 20.2443 33.8947C20.2443 33.5548 20.487 33.4214 20.7784 33.5912C21.0819 33.7612 21.3125 34.174 21.3125 34.5138Z" fill="#262626"/>
<path d="M42.3263 8.92571C42.2292 8.92571 42.1321 8.90143 42.0472 8.85288C41.768 8.69507 41.6709 8.34305 41.8287 8.06386L43.5888 4.89564C43.7466 4.61645 44.0986 4.51934 44.3778 4.67715C44.657 4.83495 44.7541 5.18697 44.5963 5.46617L42.8362 8.63438C42.7269 8.81646 42.5327 8.92571 42.3263 8.92571Z" fill="#343434"/>
<path d="M39.7407 15.4565C39.5829 15.4565 39.4251 15.3716 39.3401 15.2259C39.2187 15.0074 39.2916 14.7282 39.5101 14.5947L40.7968 13.8542C40.9546 13.7693 41.0638 13.6115 41.0881 13.4294L41.78 8.5496C41.8164 8.29468 42.0471 8.12474 42.302 8.16116C42.5569 8.19757 42.7268 8.42821 42.6904 8.68312L41.9985 13.575C41.9257 14.0363 41.6586 14.4369 41.258 14.6675L39.9713 15.408C39.8985 15.4323 39.8257 15.4565 39.7407 15.4565Z" fill="#4F4F4F"/>
<path d="M43.5044 14.1825C43.7593 14.7773 42.8125 15.979 42.1327 15.7119C41.55 15.4813 40.9188 14.1582 41.987 13.6848C42.4119 13.527 42.8974 13.6119 43.3102 13.9275C43.4194 14.0125 43.4801 14.1096 43.5044 14.1825Z" fill="#343434"/>
<path d="M43.2836 14.268C43.1015 14.1345 42.7495 14.2923 42.4703 14.6322C42.2032 14.9721 42.1304 15.3605 42.3003 15.5062C42.4824 15.6397 42.8344 15.4819 43.1136 15.142C43.3807 14.8021 43.4535 14.4137 43.2836 14.268Z" fill="#EA761D"/>
<path d="M39.0852 14.3164L38.2355 12.9083C38.2841 12.8841 38.3326 12.8598 38.369 12.8477L39.2188 14.2558C39.1823 14.2679 39.1338 14.2922 39.0852 14.3164Z" fill="#AEADAD"/>
<path d="M39.2219 14.255L38.3722 12.8469C38.6514 12.7255 38.8092 12.6891 38.8456 12.7376L39.6953 14.1457C39.6589 14.0971 39.5011 14.1336 39.2219 14.255Z" fill="#4F4F4F"/>
<path d="M37.3685 15.5423L36.5187 14.1342C36.4945 14.0978 36.5431 14.0249 36.6523 13.9278C36.8465 13.7336 37.2228 13.4787 37.6112 13.248L38.4609 14.6561C38.0725 14.8868 37.6962 15.1538 37.502 15.3359C37.3927 15.4452 37.3442 15.518 37.3685 15.5423Z" fill="#4F4F4F"/>
<path d="M38.4625 14.6562L37.6128 13.2481C37.8192 13.1267 38.0377 13.0053 38.244 12.9082L39.0938 14.3163C38.8874 14.4134 38.6689 14.5227 38.4625 14.6562Z" fill="#AEADAD"/>
<path d="M39.0901 14.3149C39.6606 14.0479 39.867 14.0721 39.5635 14.3635C39.2601 14.6548 38.5439 15.1161 37.9855 15.3831C37.415 15.6502 37.2087 15.638 37.5121 15.3467C37.8034 15.0432 38.5196 14.582 39.0901 14.3149Z" fill="#1B1B1B"/>
<path d="M36.4994 15.8448L35.5162 14.5338C35.5647 14.5095 35.6011 14.4852 35.6496 14.4609L36.6328 15.7719C36.5844 15.7962 36.548 15.8205 36.4994 15.8448Z" fill="#AEADAD"/>
<path d="M36.6367 15.7717L35.6535 14.4607C35.9085 14.3151 36.0784 14.2665 36.1027 14.3151L37.0859 15.6261C37.0494 15.5654 36.8916 15.6261 36.6367 15.7717Z" fill="#4F4F4F"/>
<path d="M34.9186 17.24L33.9354 15.929C33.9111 15.8926 33.9475 15.8197 34.0447 15.7105C34.2268 15.5041 34.5667 15.2006 34.9308 14.9336L35.9141 16.2446C35.5499 16.5116 35.21 16.8151 35.0279 17.0215C34.9307 17.1428 34.8943 17.2157 34.9186 17.24Z" fill="#4F4F4F"/>
<path d="M35.913 16.2448L34.9298 14.9338C35.124 14.7881 35.3304 14.6546 35.5246 14.5332L36.5078 15.8442C36.3136 15.9534 36.1072 16.0991 35.913 16.2448Z" fill="#AEADAD"/>
<path d="M36.5064 15.8454C37.0405 15.5177 37.2589 15.5177 36.9797 15.8454C36.7006 16.1732 36.045 16.6951 35.5109 17.0229C34.9768 17.3506 34.7583 17.3506 35.0375 17.035C35.3047 16.6951 35.9602 16.1732 36.5064 15.8454Z" fill="#1B1B1B"/>
<path d="M40.1996 15.627L36.1695 17.9576L39.629 26.7582L43.125 24.731L40.1996 15.627Z" fill="#E5542E"/>
<path d="M36.8117 19.0136L37.8435 21.6478L41.3516 19.6206L40.4897 16.9258C39.2394 17.5813 37.9891 18.2368 36.8117 19.0136Z" fill="#343434"/>
<path d="M36.8705 17.665L46.2416 42.513C46.3144 42.7194 46.2173 42.95 46.0109 43.035C45.8046 43.1078 45.5739 43.0106 45.5011 42.8044L35.4502 18.2355C35.2924 17.8471 35.4745 17.398 35.8751 17.2402C36.2635 17.0824 36.7127 17.2644 36.8705 17.665Z" fill="#343434"/>
<path d="M38.9253 13.5018L35.2836 15.6018C34.7617 15.9053 34.5189 16.5365 34.701 17.1191L35.1865 18.6243C35.2594 18.8307 35.3928 19.0128 35.587 19.122L36.6916 19.7654L41.4257 17.0342C41.6442 16.9128 41.7656 16.6821 41.7656 16.4394V15.2862C41.7656 14.8249 41.5228 14.4001 41.1223 14.1694L39.9691 13.5018C39.6657 13.3197 39.253 13.3197 38.9253 13.5018Z" fill="#343434"/>
<path d="M36.2153 18.3817C36.4703 18.9765 35.5234 20.1782 34.8436 19.9112C34.2609 19.6805 33.6298 18.3574 34.6979 17.884C35.1228 17.7262 35.6083 17.8112 36.0211 18.1268C36.1303 18.2117 36.191 18.3088 36.2153 18.3817Z" fill="#343434"/>
<path d="M35.9945 18.4672C35.8123 18.3337 35.4603 18.4915 35.1812 18.8314C34.9141 19.1713 34.8412 19.5597 35.0113 19.7054C35.1934 19.8389 35.5454 19.6811 35.8246 19.3412C36.0916 19.0013 36.1645 18.6129 35.9945 18.4672Z" fill="#EA761D"/>
<path d="M33.9776 18.552C33.5648 18.552 33.1522 18.4549 32.7758 18.2607C31.5377 17.6173 29.4255 16.5977 29.4135 16.5855C29.1829 16.4763 29.0858 16.1971 29.1949 15.9665C29.3043 15.7358 29.5833 15.6387 29.814 15.748C29.8384 15.7601 31.9505 16.7798 33.2007 17.4352C33.7105 17.7023 34.3053 17.6902 34.803 17.3988L35.24 17.1439C35.4585 17.0225 35.7377 17.0954 35.8712 17.3139C35.9926 17.5324 35.9198 17.8115 35.7013 17.9451L35.2643 18.2C34.8758 18.4428 34.4267 18.552 33.9776 18.552Z" fill="#4F4F4F"/>
<path d="M24.5222 18.4185C24.2796 18.4185 24.061 18.2607 23.9761 18.018C23.879 17.7145 24.0368 17.3867 24.3402 17.2896L29.4384 15.6145C29.7419 15.5174 30.0697 15.6752 30.1668 15.9786C30.2639 16.2821 30.1061 16.6099 29.8027 16.707L24.7044 18.3821C24.6437 18.4064 24.583 18.4185 24.5222 18.4185Z" fill="#343434"/>
<path d="M43.6354 18.7818C44.2787 20.287 41.8753 23.3096 40.188 22.6298C38.707 22.035 37.129 18.7211 39.8117 17.5194C40.8677 17.1067 42.118 17.3373 43.1377 18.1385C43.4169 18.357 43.5625 18.5998 43.6354 18.7818Z" fill="#4F4F4F"/>
<path d="M43.2096 18.7811C42.6997 18.3805 41.6679 18.8539 40.9032 19.8372C40.1385 20.8204 39.92 21.9372 40.4177 22.3256C40.9275 22.7262 41.9593 22.2528 42.724 21.2695C43.4888 20.2984 43.7073 19.1817 43.2096 18.7811Z" fill="#F1F9FD"/>
<path d="M45.1556 5.3935C44.9249 5.79407 44.3423 5.90332 43.8567 5.62413C43.3712 5.34494 43.1648 4.78656 43.3955 4.38598C43.6261 3.9854 44.2088 3.87615 44.6943 4.15534C45.1799 4.43453 45.3862 4.99292 45.1556 5.3935Z" fill="#343434"/>
<path d="M24.5151 18.9402C24.0658 19.0859 23.5683 18.7702 23.3983 18.2361C23.2284 17.702 23.4468 17.1558 23.896 17.0101C24.3451 16.8645 24.8427 17.1801 25.0128 17.7142C25.1827 18.2483 24.9642 18.7945 24.5151 18.9402Z" fill="#343434"/>
<path opacity="0.8" d="M40.4341 14.3513C40.5554 14.5698 39.6814 15.3102 38.4797 16.0022C37.278 16.6941 36.1976 17.0825 36.0641 16.864C35.9427 16.6576 40.3127 14.1328 40.4341 14.3513Z" fill="#343434"/>
<path opacity="0.8" d="M41.2957 17.7752C40.9558 17.8844 40.7858 18.1393 40.9194 18.3457C41.0529 18.552 41.4413 18.6249 41.7812 18.5156C42.1211 18.4064 42.2911 18.1515 42.1575 17.9451C42.024 17.7388 41.6356 17.6659 41.2957 17.7752Z" fill="#4F4F4F"/>
<defs>
<linearGradient id="paint0_linear_268_20736" x1="37.4999" y1="14.4692" x2="28.4617" y2="14.4692" gradientUnits="userSpaceOnUse">
<stop offset="0.0048" stop-color="#999999"/>
<stop offset="1"/>
</linearGradient>
</defs>
</svg>
